<mxfile host="65bd71144e">
    <diagram id="eDEGl3UPnyf9JH5c8E0P" name="Page-1">
        <mxGraphModel dx="960" dy="712" grid="0" gridSize="10" guides="1" tooltips="1" connect="1" arrows="1" fold="1" page="1" pageScale="1" pageWidth="850" pageHeight="1100" math="0" shadow="0">
            <root>
                <mxCell id="0"/>
                <mxCell id="1" parent="0"/>
                <mxCell id="2" value="Actor" style="shape=umlActor;verticalLabelPosition=bottom;verticalAlign=top;html=1;outlineConnect=0;fillStyle=auto;" vertex="1" parent="1">
                    <mxGeometry x="38" y="91" width="19" height="34" as="geometry"/>
                </mxCell>
                <mxCell id="5" value="" style="endArrow=none;html=1;" edge="1" parent="1">
                    <mxGeometry width="50" height="50" relative="1" as="geometry">
                        <mxPoint x="49" y="556" as="sourcePoint"/>
                        <mxPoint x="49" y="153" as="targetPoint"/>
                    </mxGeometry>
                </mxCell>
                <mxCell id="8" value="&lt;font style=&quot;font-size: 16px;&quot;&gt;:Front&lt;/font&gt;" style="rounded=1;whiteSpace=wrap;html=1;fillStyle=auto;" vertex="1" parent="1">
                    <mxGeometry x="166" y="78" width="120" height="60" as="geometry"/>
                </mxCell>
                <mxCell id="9" value="&lt;font style=&quot;font-size: 16px;&quot;&gt;:Controle&lt;/font&gt;" style="rounded=1;whiteSpace=wrap;html=1;fillStyle=auto;" vertex="1" parent="1">
                    <mxGeometry x="382" y="80" width="120" height="60" as="geometry"/>
                </mxCell>
                <mxCell id="10" value="&lt;font style=&quot;font-size: 16px;&quot;&gt;:FireBase&lt;/font&gt;" style="rounded=1;whiteSpace=wrap;html=1;fillStyle=auto;" vertex="1" parent="1">
                    <mxGeometry x="604" y="80" width="120" height="60" as="geometry"/>
                </mxCell>
                <mxCell id="11" value="" style="endArrow=none;html=1;entryX=0.5;entryY=1;entryDx=0;entryDy=0;" edge="1" parent="1" target="8">
                    <mxGeometry width="50" height="50" relative="1" as="geometry">
                        <mxPoint x="226" y="557" as="sourcePoint"/>
                        <mxPoint x="502" y="244" as="targetPoint"/>
                    </mxGeometry>
                </mxCell>
                <mxCell id="12" value="" style="endArrow=none;html=1;entryX=0.5;entryY=1;entryDx=0;entryDy=0;" edge="1" parent="1">
                    <mxGeometry width="50" height="50" relative="1" as="geometry">
                        <mxPoint x="441.16999999999996" y="561" as="sourcePoint"/>
                        <mxPoint x="441.16999999999996" y="142" as="targetPoint"/>
                    </mxGeometry>
                </mxCell>
                <mxCell id="13" value="" style="endArrow=none;html=1;entryX=0.5;entryY=1;entryDx=0;entryDy=0;" edge="1" parent="1">
                    <mxGeometry width="50" height="50" relative="1" as="geometry">
                        <mxPoint x="667" y="557" as="sourcePoint"/>
                        <mxPoint x="667" y="138" as="targetPoint"/>
                    </mxGeometry>
                </mxCell>
                <mxCell id="14" value="&lt;span style=&quot;font-size: 16px;&quot;&gt;inserting&lt;br&gt;(FullName,bio,&lt;br&gt;Profile_img)&lt;br&gt;&lt;/span&gt;" style="endArrow=classic;html=1;" edge="1" parent="1">
                    <mxGeometry width="50" height="50" relative="1" as="geometry">
                        <mxPoint x="46" y="208" as="sourcePoint"/>
                        <mxPoint x="223" y="208" as="targetPoint"/>
                        <Array as="points"/>
                    </mxGeometry>
                </mxCell>
                <mxCell id="17" value="Verification&amp;nbsp;&lt;br&gt;(FullName,bio,&lt;br&gt;Profile_img)" style="endArrow=classic;html=1;fontSize=16;" edge="1" parent="1">
                    <mxGeometry width="50" height="50" relative="1" as="geometry">
                        <mxPoint x="226" y="262" as="sourcePoint"/>
                        <mxPoint x="443" y="262" as="targetPoint"/>
                    </mxGeometry>
                </mxCell>
                <mxCell id="20" value="" style="endArrow=classic;html=1;fontSize=16;" edge="1" parent="1">
                    <mxGeometry x="-0.544" width="50" height="50" relative="1" as="geometry">
                        <mxPoint x="667" y="279" as="sourcePoint"/>
                        <mxPoint x="667" y="397" as="targetPoint"/>
                        <Array as="points">
                            <mxPoint x="762" y="279"/>
                            <mxPoint x="762" y="397"/>
                        </Array>
                        <mxPoint x="1" as="offset"/>
                    </mxGeometry>
                </mxCell>
                <mxCell id="21" value="Result" style="endArrow=classic;html=1;fontSize=16;" edge="1" parent="1">
                    <mxGeometry width="50" height="50" relative="1" as="geometry">
                        <mxPoint x="667" y="399" as="sourcePoint"/>
                        <mxPoint x="442" y="399" as="targetPoint"/>
                    </mxGeometry>
                </mxCell>
                <mxCell id="24" value="" style="rounded=1;whiteSpace=wrap;html=1;fillStyle=auto;fontSize=16;" vertex="1" parent="1">
                    <mxGeometry x="223" y="391" width="220" height="133" as="geometry"/>
                </mxCell>
                <mxCell id="22" value="Update &lt;br&gt;Successfully" style="endArrow=classic;html=1;fontSize=16;" edge="1" parent="1">
                    <mxGeometry width="50" height="50" relative="1" as="geometry">
                        <mxPoint x="441" y="428" as="sourcePoint"/>
                        <mxPoint x="226" y="428" as="targetPoint"/>
                        <Array as="points">
                            <mxPoint x="304" y="428"/>
                        </Array>
                    </mxGeometry>
                </mxCell>
                <mxCell id="23" value="Error &lt;br&gt;Verify Date" style="endArrow=classic;html=1;fontSize=16;" edge="1" parent="1">
                    <mxGeometry width="50" height="50" relative="1" as="geometry">
                        <mxPoint x="439" y="482" as="sourcePoint"/>
                        <mxPoint x="224" y="482" as="targetPoint"/>
                    </mxGeometry>
                </mxCell>
                <mxCell id="28" value="Send Data" style="endArrow=classic;html=1;fontSize=16;" edge="1" parent="1">
                    <mxGeometry width="50" height="50" relative="1" as="geometry">
                        <mxPoint x="442" y="277" as="sourcePoint"/>
                        <mxPoint x="669" y="277" as="targetPoint"/>
                    </mxGeometry>
                </mxCell>
                <mxCell id="30" value="Update User&amp;nbsp;&lt;br&gt;Set FullName=Full name,&lt;br&gt;bio=bio;" style="text;html=1;align=center;verticalAlign=middle;resizable=0;points=[];autosize=1;strokeColor=none;fillColor=none;fontSize=16;" vertex="1" parent="1">
                    <mxGeometry x="640" y="405" width="199" height="70" as="geometry"/>
                </mxCell>
            </root>
        </mxGraphModel>
    </diagram>
</mxfile>